{
	"asset":{
		"generator":"Khronos glTF Blender I/O v4.0.44",
		"version":"2.0"
	},
	"scene":0,
	"scenes":[
		{
			"name":"Scene",
			"nodes":[
				4
			]
		}
	],
	"nodes":[
		{
			"mesh":0,
			"name":"Object_5"
		},
		{
			"children":[
				0
			],
			"name":"Cube.018_0",
			"rotation":[
				0,
				0.26370564103126526,
				0,
				0.9646031856536865
			],
			"scale":[
				0.12998081743717194,
				0.4383832514286041,
				0.12998081743717194
			],
			"translation":[
				0.9383206367492676,
				0.8175602555274963,
				-0.7419158220291138
			]
		},
		{
			"children":[
				1
			],
			"name":"GLTF_SceneRootNode",
			"rotation":[
				0.70710688829422,
				0,
				0,
				0.7071066498756409
			]
		},
		{
			"children":[
				2
			],
			"name":"root"
		},
		{
			"children":[
				3
			],
			"name":"Sketchfab_model",
			"rotation":[
				-0.7071068286895752,
				0,
				0,
				0.7071068286895752
			]
		}
	],
	"materials":[
		{
			"doubleSided":true,
			"name":"white",
			"pbrMetallicRoughness":{
				"baseColorTexture":{
					"index":0
				},
				"metallicFactor":0
			}
		},
		{
			"doubleSided":true,
			"name":"black",
			"pbrMetallicRoughness":{
				"baseColorTexture":{
					"index":1
				},
				"metallicFactor":0
			}
		},
		{
			"doubleSided":true,
			"name":"brown",
			"pbrMetallicRoughness":{
				"baseColorTexture":{
					"index":2
				},
				"metallicFactor":0
			}
		},
		{
			"doubleSided":true,
			"name":"green",
			"pbrMetallicRoughness":{
				"baseColorTexture":{
					"index":3
				},
				"metallicFactor":0,
				"roughnessFactor":0.1318179965019226
			}
		}
	],
	"meshes":[
		{
			"name":"Object_1",
			"primitives":[
				{
					"attributes":{
						"POSITION":0,
						"NORMAL":1,
						"TEXCOORD_0":2
					},
					"indices":3,
					"material":0
				},
				{
					"attributes":{
						"POSITION":4,
						"NORMAL":5,
						"TEXCOORD_0":6
					},
					"indices":7,
					"material":1
				},
				{
					"attributes":{
						"POSITION":8,
						"NORMAL":9,
						"TEXCOORD_0":10
					},
					"indices":11,
					"material":2
				},
				{
					"attributes":{
						"POSITION":12,
						"NORMAL":13,
						"TEXCOORD_0":14
					},
					"indices":15,
					"material":3
				}
			]
		}
	],
	"textures":[
		{
			"sampler":0,
			"source":0
		},
		{
			"sampler":0,
			"source":1
		},
		{
			"sampler":0,
			"source":2
		},
		{
			"sampler":0,
			"source":3
		}
	],
	"images":[
		{
			"mimeType":"image/jpeg",
			"name":"desert_sand2_n",
			"uri":"desert_sand2_n.jpg"
		},
		{
			"mimeType":"image/png",
			"name":"GoldCoinBlank_baseColor",
			"uri":"GoldCoinBlank_baseColor.png"
		},
		{
			"mimeType":"image/jpeg",
			"name":"brown",
			"uri":"brown.jpg"
		},
		{
			"mimeType":"image/jpeg",
			"name":"green",
			"uri":"green.jpg"
		}
	],
	"accessors":[
		{
			"bufferView":0,
			"componentType":5126,
			"count":140,
			"max":[
				8.233619689941406,
				5.840319633483887,
				15.820100784301758
			],
			"min":[
				-24.886995315551758,
				-0.00034999847412109375,
				-7.3373870849609375
			],
			"type":"VEC3"
		},
		{
			"bufferView":1,
			"componentType":5126,
			"count":140,
			"type":"VEC3"
		},
		{
			"bufferView":2,
			"componentType":5126,
			"count":140,
			"type":"VEC2"
		},
		{
			"bufferView":3,
			"componentType":5123,
			"count":168,
			"type":"SCALAR"
		},
		{
			"bufferView":4,
			"componentType":5126,
			"count":692,
			"max":[
				1.2706266641616821,
				6.086154937744141,
				12.906366348266602
			],
			"min":[
				-24.887001037597656,
				-1.715835452079773,
				-4.423653602600098
			],
			"type":"VEC3"
		},
		{
			"bufferView":5,
			"componentType":5126,
			"count":692,
			"type":"VEC3"
		},
		{
			"bufferView":6,
			"componentType":5126,
			"count":692,
			"type":"VEC2"
		},
		{
			"bufferView":7,
			"componentType":5123,
			"count":1812,
			"type":"SCALAR"
		},
		{
			"bufferView":8,
			"componentType":5126,
			"count":266,
			"max":[
				-19.967571258544922,
				2.7173163890838623,
				10.188121795654297
			],
			"min":[
				-22.332279205322266,
				1.4686702489852905,
				-4.622591495513916
			],
			"type":"VEC3"
		},
		{
			"bufferView":9,
			"componentType":5126,
			"count":266,
			"type":"VEC3"
		},
		{
			"bufferView":10,
			"componentType":5126,
			"count":266,
			"type":"VEC2"
		},
		{
			"bufferView":11,
			"componentType":5123,
			"count":378,
			"type":"SCALAR"
		},
		{
			"bufferView":12,
			"componentType":5126,
			"count":120,
			"max":[
				-18.699447631835938,
				3.2339022159576416,
				-1.791054606437683
			],
			"min":[
				-24.686500549316406,
				2.369197130203247,
				-6.268497467041016
			],
			"type":"VEC3"
		},
		{
			"bufferView":13,
			"componentType":5126,
			"count":120,
			"type":"VEC3"
		},
		{
			"bufferView":14,
			"componentType":5126,
			"count":120,
			"type":"VEC2"
		},
		{
			"bufferView":15,
			"componentType":5123,
			"count":120,
			"type":"SCALAR"
		}
	],
	"bufferViews":[
		{
			"buffer":0,
			"byteLength":1680,
			"byteOffset":0,
			"target":34962
		},
		{
			"buffer":0,
			"byteLength":1680,
			"byteOffset":1680,
			"target":34962
		},
		{
			"buffer":0,
			"byteLength":1120,
			"byteOffset":3360,
			"target":34962
		},
		{
			"buffer":0,
			"byteLength":336,
			"byteOffset":4480,
			"target":34963
		},
		{
			"buffer":0,
			"byteLength":8304,
			"byteOffset":4816,
			"target":34962
		},
		{
			"buffer":0,
			"byteLength":8304,
			"byteOffset":13120,
			"target":34962
		},
		{
			"buffer":0,
			"byteLength":5536,
			"byteOffset":21424,
			"target":34962
		},
		{
			"buffer":0,
			"byteLength":3624,
			"byteOffset":26960,
			"target":34963
		},
		{
			"buffer":0,
			"byteLength":3192,
			"byteOffset":30584,
			"target":34962
		},
		{
			"buffer":0,
			"byteLength":3192,
			"byteOffset":33776,
			"target":34962
		},
		{
			"buffer":0,
			"byteLength":2128,
			"byteOffset":36968,
			"target":34962
		},
		{
			"buffer":0,
			"byteLength":756,
			"byteOffset":39096,
			"target":34963
		},
		{
			"buffer":0,
			"byteLength":1440,
			"byteOffset":39852,
			"target":34962
		},
		{
			"buffer":0,
			"byteLength":1440,
			"byteOffset":41292,
			"target":34962
		},
		{
			"buffer":0,
			"byteLength":960,
			"byteOffset":42732,
			"target":34962
		},
		{
			"buffer":0,
			"byteLength":240,
			"byteOffset":43692,
			"target":34963
		}
	],
	"samplers":[
		{
			"magFilter":9729,
			"minFilter":9987
		}
	],
	"buffers":[
		{
			"byteLength":43932,
			"uri":"new.bin"
		}
	]
}
