{
	"asset":{
		"generator":"Khronos glTF Blender I/O v4.0.44",
		"version":"2.0"
	},
	"scene":0,
	"scenes":[
		{
			"name":"Scene",
			"nodes":[
				0
			]
		}
	],
	"nodes":[
		{
			"mesh":0,
			"name":"sheep 4",
			"rotation":[
				0,
				-0.6873948574066162,
				0,
				0.7262839078903198
			],
			"translation":[
				-2.299199342727661,
				0,
				0
			]
		}
	],
	"materials":[
		{
			"doubleSided":true,
			"name":"Material.003",
			"pbrMetallicRoughness":{
				"baseColorTexture":{
					"index":0
				},
				"metallicFactor":0,
				"roughnessFactor":0.5
			}
		}
	],
	"meshes":[
		{
			"name":"Sphere.003",
			"primitives":[
				{
					"attributes":{
						"POSITION":0,
						"NORMAL":1,
						"TEXCOORD_0":2
					},
					"indices":3,
					"material":0
				}
			]
		}
	],
	"textures":[
		{
			"sampler":0,
			"source":0
		}
	],
	"images":[
		{
			"mimeType":"image/jpg",
			"name":"base",
			"uri":"desert_sand2_n.jpg"
		}
	],
	"accessors":[
		{
			"bufferView":0,
			"componentType":5126,
			"count":2172,
			"max":[
				1.8120421171188354,
				1.6186895370483398,
				0.482057124376297
			],
			"min":[
				-0.6471003293991089,
				-0.2214568555355072,
				-0.4487808346748352
			],
			"type":"VEC3"
		},
		{
			"bufferView":1,
			"componentType":5126,
			"count":2172,
			"type":"VEC3"
		},
		{
			"bufferView":2,
			"componentType":5126,
			"count":2172,
			"type":"VEC2"
		},
		{
			"bufferView":3,
			"componentType":5123,
			"count":8820,
			"type":"SCALAR"
		}
	],
	"bufferViews":[
		{
			"buffer":0,
			"byteLength":26064,
			"byteOffset":0,
			"target":34962
		},
		{
			"buffer":0,
			"byteLength":26064,
			"byteOffset":26064,
			"target":34962
		},
		{
			"buffer":0,
			"byteLength":17376,
			"byteOffset":52128,
			"target":34962
		},
		{
			"buffer":0,
			"byteLength":17640,
			"byteOffset":69504,
			"target":34963
		}
	],
	"samplers":[
		{
			"magFilter":9729,
			"minFilter":9987
		}
	],
	"buffers":[
		{
			"byteLength":87144,
			"uri":"sheepies.bin"
		}
	]
}
